<mxfile host="Electron" agent="Mozilla/5.0 (Windows NT 10.0; Win64; x64) AppleWebKit/537.36 (KHTML, like Gecko) draw.io/24.7.17 Chrome/128.0.6613.36 Electron/32.0.1 Safari/537.36" version="24.7.17" pages="4">
  <diagram name="User Interface" id="kkoWEC16X2jwk09VRAtZ">
    <mxGraphModel dx="2104" dy="1408" grid="1" gridSize="10" guides="1" tooltips="1" connect="1" arrows="1" fold="1" page="1" pageScale="1" pageWidth="827" pageHeight="1169" math="0" shadow="0">
      <root>
        <mxCell id="0" />
        <mxCell id="1" parent="0" />
        <mxCell id="aZz681Y8wiULObZYQGnS-1" value="" style="rounded=1;whiteSpace=wrap;html=1;" parent="1" vertex="1">
          <mxGeometry x="70" y="90" width="550" height="490" as="geometry" />
        </mxCell>
        <mxCell id="aZz681Y8wiULObZYQGnS-3" value="" style="rounded=0;whiteSpace=wrap;html=1;" parent="1" vertex="1">
          <mxGeometry x="110" y="170" width="470" height="310" as="geometry" />
        </mxCell>
        <mxCell id="aZz681Y8wiULObZYQGnS-18" value="" style="group;flipV=1;flipH=1;" parent="1" vertex="1" connectable="0">
          <mxGeometry x="140" y="270" width="380" height="40" as="geometry" />
        </mxCell>
        <mxCell id="aZz681Y8wiULObZYQGnS-19" value="I am really great" style="rounded=1;whiteSpace=wrap;html=1;align=left;fillColor=#dae8fc;strokeColor=#6c8ebf;" parent="aZz681Y8wiULObZYQGnS-18" vertex="1">
          <mxGeometry x="60" width="320" height="40" as="geometry" />
        </mxCell>
        <mxCell id="aZz681Y8wiULObZYQGnS-20" value="PN" style="ellipse;whiteSpace=wrap;html=1;aspect=fixed;" parent="aZz681Y8wiULObZYQGnS-18" vertex="1">
          <mxGeometry width="40" height="40" as="geometry" />
        </mxCell>
        <mxCell id="aZz681Y8wiULObZYQGnS-22" value="" style="group" parent="1" vertex="1" connectable="0">
          <mxGeometry x="150" y="190" width="390" height="40" as="geometry" />
        </mxCell>
        <mxCell id="aZz681Y8wiULObZYQGnS-23" value="" style="group" parent="aZz681Y8wiULObZYQGnS-22" vertex="1" connectable="0">
          <mxGeometry width="390" height="40" as="geometry" />
        </mxCell>
        <mxCell id="aZz681Y8wiULObZYQGnS-9" value="Hello how are you?" style="rounded=1;whiteSpace=wrap;html=1;align=left;fillColor=#f5f5f5;fontColor=#333333;strokeColor=#666666;" parent="aZz681Y8wiULObZYQGnS-23" vertex="1">
          <mxGeometry width="328.42105263157896" height="40" as="geometry" />
        </mxCell>
        <mxCell id="aZz681Y8wiULObZYQGnS-13" value="ME" style="ellipse;whiteSpace=wrap;html=1;aspect=fixed;" parent="aZz681Y8wiULObZYQGnS-23" vertex="1">
          <mxGeometry x="348.94736842105266" width="40" height="40" as="geometry" />
        </mxCell>
        <mxCell id="aZz681Y8wiULObZYQGnS-24" value="" style="group;flipV=1;flipH=1;align=left;" parent="1" vertex="1" connectable="0">
          <mxGeometry x="140" y="330" width="380" height="40" as="geometry" />
        </mxCell>
        <mxCell id="aZz681Y8wiULObZYQGnS-25" value="Nice to meet you" style="rounded=1;whiteSpace=wrap;html=1;align=left;fillColor=#dae8fc;strokeColor=#6c8ebf;" parent="aZz681Y8wiULObZYQGnS-24" vertex="1">
          <mxGeometry x="60" width="320" height="40" as="geometry" />
        </mxCell>
        <mxCell id="aZz681Y8wiULObZYQGnS-26" value="PN" style="ellipse;whiteSpace=wrap;html=1;aspect=fixed;" parent="aZz681Y8wiULObZYQGnS-24" vertex="1">
          <mxGeometry width="40" height="40" as="geometry" />
        </mxCell>
        <mxCell id="aZz681Y8wiULObZYQGnS-27" value="" style="group;align=left;" parent="1" vertex="1" connectable="0">
          <mxGeometry x="148.95" y="400" width="390" height="40" as="geometry" />
        </mxCell>
        <mxCell id="aZz681Y8wiULObZYQGnS-28" value="" style="group" parent="aZz681Y8wiULObZYQGnS-27" vertex="1" connectable="0">
          <mxGeometry width="390" height="40" as="geometry" />
        </mxCell>
        <mxCell id="aZz681Y8wiULObZYQGnS-29" value="How about your job?" style="rounded=1;whiteSpace=wrap;html=1;fillColor=#f5f5f5;fontColor=#333333;strokeColor=#666666;" parent="aZz681Y8wiULObZYQGnS-28" vertex="1">
          <mxGeometry width="328.42105263157896" height="40" as="geometry" />
        </mxCell>
        <mxCell id="aZz681Y8wiULObZYQGnS-30" value="ME" style="ellipse;whiteSpace=wrap;html=1;aspect=fixed;" parent="aZz681Y8wiULObZYQGnS-28" vertex="1">
          <mxGeometry x="348.94736842105266" width="40" height="40" as="geometry" />
        </mxCell>
        <mxCell id="aZz681Y8wiULObZYQGnS-31" value="Chat App" style="text;strokeColor=none;fillColor=none;html=1;fontSize=24;fontStyle=1;verticalAlign=middle;align=center;" parent="1" vertex="1">
          <mxGeometry x="130" y="110" width="100" height="40" as="geometry" />
        </mxCell>
        <mxCell id="aZz681Y8wiULObZYQGnS-34" value="" style="group" parent="1" vertex="1" connectable="0">
          <mxGeometry x="940" y="280" width="530" height="488.7" as="geometry" />
        </mxCell>
        <mxCell id="aZz681Y8wiULObZYQGnS-2" value="" style="rounded=1;whiteSpace=wrap;html=1;" parent="aZz681Y8wiULObZYQGnS-34" vertex="1">
          <mxGeometry width="530" height="480" as="geometry" />
        </mxCell>
        <mxCell id="opsHl_IxKaoukE8vfMGn-2" value="Chat Server" style="text;strokeColor=none;fillColor=none;html=1;fontSize=24;fontStyle=1;verticalAlign=middle;align=center;" parent="aZz681Y8wiULObZYQGnS-34" vertex="1">
          <mxGeometry x="200" y="15" width="100" height="40" as="geometry" />
        </mxCell>
        <mxCell id="opsHl_IxKaoukE8vfMGn-3" value="Start Server" style="rounded=1;html=1;shadow=0;dashed=0;whiteSpace=wrap;fontSize=10;fillColor=#666666;align=center;strokeColor=#999999;fontColor=#ffffff;" parent="aZz681Y8wiULObZYQGnS-34" vertex="1">
          <mxGeometry x="40" y="90" width="105.5" height="16.88" as="geometry" />
        </mxCell>
        <mxCell id="opsHl_IxKaoukE8vfMGn-4" value="Stop Server" style="rounded=1;html=1;shadow=0;dashed=0;whiteSpace=wrap;fontSize=10;fillColor=#666666;align=center;strokeColor=#999999;fontColor=#ffffff;" parent="aZz681Y8wiULObZYQGnS-34" vertex="1">
          <mxGeometry x="150" y="90" width="105.5" height="16.88" as="geometry" />
        </mxCell>
        <mxCell id="opsHl_IxKaoukE8vfMGn-5" value="&lt;font style=&quot;font-size: 16px;&quot;&gt;Server log:&amp;nbsp;&lt;/font&gt;" style="text;strokeColor=none;fillColor=none;html=1;fontSize=24;fontStyle=1;verticalAlign=middle;align=center;" parent="aZz681Y8wiULObZYQGnS-34" vertex="1">
          <mxGeometry x="20" y="130" width="100" height="40" as="geometry" />
        </mxCell>
        <mxCell id="opsHl_IxKaoukE8vfMGn-6" value="" style="swimlane;fontStyle=0;childLayout=stackLayout;horizontal=1;startSize=0;horizontalStack=0;resizeParent=1;resizeParentMax=0;resizeLast=0;collapsible=0;marginBottom=0;whiteSpace=wrap;html=1;strokeColor=#666666;fillColor=#f5f5f5;fontColor=#333333;" parent="aZz681Y8wiULObZYQGnS-34" vertex="1">
          <mxGeometry x="50" y="170" width="420" height="180" as="geometry" />
        </mxCell>
        <mxCell id="opsHl_IxKaoukE8vfMGn-7" value="Server listenning on port 8080" style="text;strokeColor=#DFDFDF;fillColor=#FFFFFF;align=left;verticalAlign=middle;spacingLeft=10;spacingRight=10;overflow=hidden;points=[[0,0.5],[1,0.5]];portConstraint=eastwest;rotatable=0;whiteSpace=wrap;html=1;shape=mxgraph.bootstrap.topButton;rSize=5;fontColor=#000000;" parent="opsHl_IxKaoukE8vfMGn-6" vertex="1">
          <mxGeometry width="420" height="30" as="geometry" />
        </mxCell>
        <mxCell id="opsHl_IxKaoukE8vfMGn-8" value="Received get groups from client&amp;nbsp;" style="text;strokeColor=#DFDFDF;fillColor=#FFFFFF;align=left;verticalAlign=middle;spacingLeft=10;spacingRight=10;overflow=hidden;points=[[0,0.5],[1,0.5]];portConstraint=eastwest;rotatable=0;whiteSpace=wrap;html=1;rSize=5;fontColor=#000000;" parent="opsHl_IxKaoukE8vfMGn-6" vertex="1">
          <mxGeometry y="30" width="420" height="30" as="geometry" />
        </mxCell>
        <mxCell id="opsHl_IxKaoukE8vfMGn-9" value="Received get messages of group from client&amp;nbsp;" style="text;strokeColor=#DFDFDF;fillColor=#FFFFFF;align=left;verticalAlign=middle;spacingLeft=10;spacingRight=10;overflow=hidden;points=[[0,0.5],[1,0.5]];portConstraint=eastwest;rotatable=0;whiteSpace=wrap;html=1;rSize=5;fontColor=#000000;" parent="opsHl_IxKaoukE8vfMGn-6" vertex="1">
          <mxGeometry y="60" width="420" height="30" as="geometry" />
        </mxCell>
        <mxCell id="opsHl_IxKaoukE8vfMGn-10" value="Received get message of group from client&amp;nbsp;" style="text;strokeColor=#DFDFDF;fillColor=#FFFFFF;align=left;verticalAlign=middle;spacingLeft=10;spacingRight=10;overflow=hidden;points=[[0,0.5],[1,0.5]];portConstraint=eastwest;rotatable=0;whiteSpace=wrap;html=1;rSize=5;fontColor=#000000;" parent="opsHl_IxKaoukE8vfMGn-6" vertex="1">
          <mxGeometry y="90" width="420" height="30" as="geometry" />
        </mxCell>
        <mxCell id="opsHl_IxKaoukE8vfMGn-11" value="Stop server....." style="text;strokeColor=#DFDFDF;fillColor=#FFFFFF;align=left;verticalAlign=middle;spacingLeft=10;spacingRight=10;overflow=hidden;points=[[0,0.5],[1,0.5]];portConstraint=eastwest;rotatable=0;whiteSpace=wrap;html=1;shape=mxgraph.bootstrap.bottomButton;rSize=5;fontColor=#000000;" parent="opsHl_IxKaoukE8vfMGn-6" vertex="1">
          <mxGeometry y="120" width="420" height="30" as="geometry" />
        </mxCell>
        <mxCell id="opsHl_IxKaoukE8vfMGn-13" value="Server stopped ...&amp;nbsp;" style="text;strokeColor=#DFDFDF;fillColor=#FFFFFF;align=left;verticalAlign=middle;spacingLeft=10;spacingRight=10;overflow=hidden;points=[[0,0.5],[1,0.5]];portConstraint=eastwest;rotatable=0;whiteSpace=wrap;html=1;shape=mxgraph.bootstrap.bottomButton;rSize=5;fontColor=#000000;" parent="opsHl_IxKaoukE8vfMGn-6" vertex="1">
          <mxGeometry y="150" width="420" height="30" as="geometry" />
        </mxCell>
        <mxCell id="aZz681Y8wiULObZYQGnS-10" value="Chat Server&amp;nbsp;" style="image;points=[];aspect=fixed;html=1;align=center;shadow=0;dashed=0;image=img/lib/allied_telesis/computer_and_terminals/Server_Desktop.svg;" parent="aZz681Y8wiULObZYQGnS-34" vertex="1">
          <mxGeometry x="240" y="370" width="69.98" height="88.7" as="geometry" />
        </mxCell>
        <mxCell id="L5mD3Go3oSKjHbqZLfvd-1" value="hoanglinh" style="rounded=1;whiteSpace=wrap;html=1;fontStyle=1" parent="1" vertex="1">
          <mxGeometry x="430" y="110" width="130" height="40" as="geometry" />
        </mxCell>
        <mxCell id="L5mD3Go3oSKjHbqZLfvd-2" value="" style="endArrow=classic;html=1;rounded=0;exitX=1;exitY=0.325;exitDx=0;exitDy=0;exitPerimeter=0;entryX=0.002;entryY=0.196;entryDx=0;entryDy=0;entryPerimeter=0;" parent="1" edge="1" target="aZz681Y8wiULObZYQGnS-2">
          <mxGeometry width="50" height="50" relative="1" as="geometry">
            <mxPoint x="621" y="249.25" as="sourcePoint" />
            <mxPoint x="1061" y="410" as="targetPoint" />
          </mxGeometry>
        </mxCell>
        <mxCell id="L5mD3Go3oSKjHbqZLfvd-3" value="" style="endArrow=classic;html=1;rounded=0;entryX=1.004;entryY=0.388;entryDx=0;entryDy=0;entryPerimeter=0;exitX=0;exitY=0.25;exitDx=0;exitDy=0;" parent="1" target="aZz681Y8wiULObZYQGnS-1" edge="1" source="aZz681Y8wiULObZYQGnS-2">
          <mxGeometry width="50" height="50" relative="1" as="geometry">
            <mxPoint x="1060" y="448" as="sourcePoint" />
            <mxPoint x="800" y="240" as="targetPoint" />
          </mxGeometry>
        </mxCell>
        <mxCell id="L5mD3Go3oSKjHbqZLfvd-5" value="" style="rounded=1;whiteSpace=wrap;html=1;" parent="1" vertex="1">
          <mxGeometry x="80" y="660" width="520" height="500" as="geometry" />
        </mxCell>
        <mxCell id="L5mD3Go3oSKjHbqZLfvd-8" value="" style="endArrow=classic;html=1;rounded=0;entryX=0.005;entryY=0.732;entryDx=0;entryDy=0;entryPerimeter=0;exitX=1.002;exitY=0.186;exitDx=0;exitDy=0;exitPerimeter=0;" parent="1" edge="1" target="aZz681Y8wiULObZYQGnS-2" source="L5mD3Go3oSKjHbqZLfvd-5">
          <mxGeometry width="50" height="50" relative="1" as="geometry">
            <mxPoint x="660" y="690" as="sourcePoint" />
            <mxPoint x="1060" y="600" as="targetPoint" />
          </mxGeometry>
        </mxCell>
        <mxCell id="L5mD3Go3oSKjHbqZLfvd-10" value="" style="endArrow=classic;html=1;rounded=0;entryX=1.002;entryY=0.283;entryDx=0;entryDy=0;entryPerimeter=0;exitX=0;exitY=0.792;exitDx=0;exitDy=0;exitPerimeter=0;" parent="1" edge="1" target="L5mD3Go3oSKjHbqZLfvd-5" source="aZz681Y8wiULObZYQGnS-2">
          <mxGeometry width="50" height="50" relative="1" as="geometry">
            <mxPoint x="1060" y="630" as="sourcePoint" />
            <mxPoint x="602" y="782.87" as="targetPoint" />
          </mxGeometry>
        </mxCell>
        <mxCell id="L5mD3Go3oSKjHbqZLfvd-14" style="edgeStyle=orthogonalEdgeStyle;rounded=0;orthogonalLoop=1;jettySize=auto;html=1;exitX=0.5;exitY=1;exitDx=0;exitDy=0;" parent="1" source="L5mD3Go3oSKjHbqZLfvd-1" target="L5mD3Go3oSKjHbqZLfvd-1" edge="1">
          <mxGeometry relative="1" as="geometry" />
        </mxCell>
        <mxCell id="L5mD3Go3oSKjHbqZLfvd-15" value="Chat App" style="text;strokeColor=none;fillColor=none;html=1;fontSize=24;fontStyle=1;verticalAlign=middle;align=center;" parent="1" vertex="1">
          <mxGeometry x="128.95" y="690" width="100" height="40" as="geometry" />
        </mxCell>
        <mxCell id="L5mD3Go3oSKjHbqZLfvd-16" value="phucnguyen" style="rounded=1;whiteSpace=wrap;html=1;fontStyle=1" parent="1" vertex="1">
          <mxGeometry x="428.95" y="690" width="130" height="40" as="geometry" />
        </mxCell>
        <mxCell id="eka-_aFjOgbKlkt7jNMK-4" value="Group: Work" style="rounded=1;whiteSpace=wrap;html=1;fontStyle=1" parent="1" vertex="1">
          <mxGeometry x="270" y="110" width="120" height="40" as="geometry" />
        </mxCell>
        <mxCell id="eka-_aFjOgbKlkt7jNMK-5" value="Group: Work" style="rounded=1;whiteSpace=wrap;html=1;fontStyle=1" parent="1" vertex="1">
          <mxGeometry x="270" y="690" width="120" height="40" as="geometry" />
        </mxCell>
        <mxCell id="AbThsHRINLhEI-LV0mSU-2" value="TCP Message" style="text;html=1;align=center;verticalAlign=middle;resizable=0;points=[];autosize=1;strokeColor=none;fillColor=none;" parent="1" vertex="1">
          <mxGeometry x="740" y="320" width="100" height="30" as="geometry" />
        </mxCell>
        <mxCell id="HB8Li79JZ6APXxTswoxL-2" value="TCP message" style="text;html=1;align=center;verticalAlign=middle;resizable=0;points=[];autosize=1;strokeColor=none;fillColor=none;" parent="1" vertex="1">
          <mxGeometry x="727" y="690" width="100" height="30" as="geometry" />
        </mxCell>
        <mxCell id="F8jf8nzXg49EsGvcMCz--2" value="" style="rounded=0;whiteSpace=wrap;html=1;" vertex="1" parent="1">
          <mxGeometry x="105" y="750" width="470" height="310" as="geometry" />
        </mxCell>
        <mxCell id="F8jf8nzXg49EsGvcMCz--3" value="" style="group;flipV=1;flipH=1;" vertex="1" connectable="0" parent="1">
          <mxGeometry x="140" y="840" width="390" height="40" as="geometry" />
        </mxCell>
        <mxCell id="F8jf8nzXg49EsGvcMCz--4" value="I am really great?" style="rounded=1;whiteSpace=wrap;html=1;align=left;fillColor=#f5f5f5;fontColor=#333333;strokeColor=#666666;" vertex="1" parent="F8jf8nzXg49EsGvcMCz--3">
          <mxGeometry width="328.42105263157896" height="40" as="geometry" />
        </mxCell>
        <mxCell id="F8jf8nzXg49EsGvcMCz--5" value="ME" style="ellipse;whiteSpace=wrap;html=1;aspect=fixed;" vertex="1" parent="F8jf8nzXg49EsGvcMCz--3">
          <mxGeometry x="348.94736842105266" width="40" height="40" as="geometry" />
        </mxCell>
        <mxCell id="F8jf8nzXg49EsGvcMCz--6" value="" style="group;flipH=0;flipV=0;" vertex="1" connectable="0" parent="1">
          <mxGeometry x="140" y="768.7" width="390" height="40" as="geometry" />
        </mxCell>
        <mxCell id="F8jf8nzXg49EsGvcMCz--7" value="" style="group" vertex="1" connectable="0" parent="F8jf8nzXg49EsGvcMCz--6">
          <mxGeometry width="390" height="40" as="geometry" />
        </mxCell>
        <mxCell id="F8jf8nzXg49EsGvcMCz--8" value="Hello how are you?" style="rounded=1;whiteSpace=wrap;html=1;align=left;fillColor=#dae8fc;strokeColor=#6c8ebf;" vertex="1" parent="F8jf8nzXg49EsGvcMCz--7">
          <mxGeometry x="60" width="328.42105263157896" height="40" as="geometry" />
        </mxCell>
        <mxCell id="F8jf8nzXg49EsGvcMCz--9" value="HL" style="ellipse;whiteSpace=wrap;html=1;aspect=fixed;" vertex="1" parent="F8jf8nzXg49EsGvcMCz--7">
          <mxGeometry x="-0.0026315789473407847" width="40" height="40" as="geometry" />
        </mxCell>
        <mxCell id="F8jf8nzXg49EsGvcMCz--10" value="" style="group;flipV=1;flipH=1;align=left;" vertex="1" connectable="0" parent="1">
          <mxGeometry x="140" y="910" width="390" height="40" as="geometry" />
        </mxCell>
        <mxCell id="F8jf8nzXg49EsGvcMCz--11" value="&amp;nbsp;I am doing well ?" style="rounded=1;whiteSpace=wrap;html=1;align=left;fillColor=#f5f5f5;fontColor=#333333;strokeColor=#666666;" vertex="1" parent="F8jf8nzXg49EsGvcMCz--10">
          <mxGeometry width="328.42105263157896" height="40" as="geometry" />
        </mxCell>
        <mxCell id="F8jf8nzXg49EsGvcMCz--12" value="PN" style="ellipse;whiteSpace=wrap;html=1;aspect=fixed;" vertex="1" parent="F8jf8nzXg49EsGvcMCz--10">
          <mxGeometry x="348.94736842105266" width="40" height="40" as="geometry" />
        </mxCell>
        <mxCell id="F8jf8nzXg49EsGvcMCz--13" value="" style="group;align=left;" vertex="1" connectable="0" parent="1">
          <mxGeometry x="128.95" y="980" width="401.05" height="40" as="geometry" />
        </mxCell>
        <mxCell id="F8jf8nzXg49EsGvcMCz--14" value="" style="group" vertex="1" connectable="0" parent="F8jf8nzXg49EsGvcMCz--13">
          <mxGeometry width="401.05" height="40" as="geometry" />
        </mxCell>
        <mxCell id="F8jf8nzXg49EsGvcMCz--15" value="How about your job?" style="rounded=1;whiteSpace=wrap;html=1;fillColor=#dae8fc;strokeColor=#6c8ebf;" vertex="1" parent="F8jf8nzXg49EsGvcMCz--14">
          <mxGeometry x="63.32476666666666" width="337.7263157894737" height="40" as="geometry" />
        </mxCell>
        <mxCell id="F8jf8nzXg49EsGvcMCz--16" value="HL" style="ellipse;whiteSpace=wrap;html=1;aspect=fixed;" vertex="1" parent="F8jf8nzXg49EsGvcMCz--14">
          <mxGeometry x="4.059210526315817" width="40" height="40" as="geometry" />
        </mxCell>
        <mxCell id="F8jf8nzXg49EsGvcMCz--18" value="" style="group" vertex="1" connectable="0" parent="1">
          <mxGeometry x="120" y="500" width="460" height="40" as="geometry" />
        </mxCell>
        <mxCell id="aZz681Y8wiULObZYQGnS-4" value="Input a message" style="rounded=1;whiteSpace=wrap;html=1;textOpacity=70;" parent="F8jf8nzXg49EsGvcMCz--18" vertex="1">
          <mxGeometry width="340" height="40" as="geometry" />
        </mxCell>
        <mxCell id="aZz681Y8wiULObZYQGnS-8" value="Send" style="rounded=1;html=1;shadow=0;dashed=0;whiteSpace=wrap;fontSize=10;fillColor=#666666;align=center;strokeColor=#4D4D4D;fontColor=#ffffff;" parent="F8jf8nzXg49EsGvcMCz--18" vertex="1">
          <mxGeometry x="360" width="100" height="40" as="geometry" />
        </mxCell>
        <mxCell id="F8jf8nzXg49EsGvcMCz--19" value="" style="group" vertex="1" connectable="0" parent="1">
          <mxGeometry x="100" y="1080" width="460" height="40" as="geometry" />
        </mxCell>
        <mxCell id="F8jf8nzXg49EsGvcMCz--20" value="Input a message" style="rounded=1;whiteSpace=wrap;html=1;textOpacity=70;" vertex="1" parent="F8jf8nzXg49EsGvcMCz--19">
          <mxGeometry width="340" height="40" as="geometry" />
        </mxCell>
        <mxCell id="F8jf8nzXg49EsGvcMCz--21" value="Send" style="rounded=1;html=1;shadow=0;dashed=0;whiteSpace=wrap;fontSize=10;fillColor=#666666;align=center;strokeColor=#4D4D4D;fontColor=#ffffff;" vertex="1" parent="F8jf8nzXg49EsGvcMCz--19">
          <mxGeometry x="360" width="100" height="40" as="geometry" />
        </mxCell>
      </root>
    </mxGraphModel>
  </diagram>
  <diagram id="P8gpwYp_JtWtx5vC6pTj" name="Features">
    <mxGraphModel dx="726" dy="486" grid="1" gridSize="10" guides="1" tooltips="1" connect="1" arrows="1" fold="1" page="1" pageScale="1" pageWidth="827" pageHeight="1169" math="0" shadow="0">
      <root>
        <mxCell id="0" />
        <mxCell id="1" parent="0" />
        <mxCell id="McjbOqBIfIkJbyc_7Geh-1" value="" style="swimlane;fontStyle=0;childLayout=stackLayout;horizontal=1;startSize=0;horizontalStack=0;resizeParent=1;resizeParentMax=0;resizeLast=0;collapsible=0;marginBottom=0;whiteSpace=wrap;html=1;strokeColor=none;fillColor=none;" parent="1" vertex="1">
          <mxGeometry x="270" y="230" width="200" height="60" as="geometry" />
        </mxCell>
        <mxCell id="McjbOqBIfIkJbyc_7Geh-3" value="Server Log" style="text;strokeColor=#DFDFDF;fillColor=#FFFFFF;align=left;verticalAlign=middle;spacingLeft=10;spacingRight=10;overflow=hidden;points=[[0,0.5],[1,0.5]];portConstraint=eastwest;rotatable=0;whiteSpace=wrap;html=1;rSize=5;fontColor=#000000;" parent="McjbOqBIfIkJbyc_7Geh-1" vertex="1">
          <mxGeometry width="200" height="30" as="geometry" />
        </mxCell>
        <mxCell id="IUztvryNzIXdS7vtBg59-5" value="Store chat data" style="text;strokeColor=#DFDFDF;fillColor=#FFFFFF;align=left;verticalAlign=middle;spacingLeft=10;spacingRight=10;overflow=hidden;points=[[0,0.5],[1,0.5]];portConstraint=eastwest;rotatable=0;whiteSpace=wrap;html=1;rSize=5;fontColor=#000000;" parent="McjbOqBIfIkJbyc_7Geh-1" vertex="1">
          <mxGeometry y="30" width="200" height="30" as="geometry" />
        </mxCell>
        <mxCell id="IUztvryNzIXdS7vtBg59-1" value="Server" style="shape=umlActor;verticalLabelPosition=bottom;verticalAlign=top;html=1;outlineConnect=0;" parent="1" vertex="1">
          <mxGeometry x="50" y="230" width="30" height="60" as="geometry" />
        </mxCell>
        <mxCell id="IUztvryNzIXdS7vtBg59-6" value="" style="swimlane;fontStyle=0;childLayout=stackLayout;horizontal=1;startSize=0;horizontalStack=0;resizeParent=1;resizeParentMax=0;resizeLast=0;collapsible=0;marginBottom=0;whiteSpace=wrap;html=1;strokeColor=none;fillColor=none;" parent="1" vertex="1">
          <mxGeometry x="260" y="70" width="200" height="90" as="geometry" />
        </mxCell>
        <mxCell id="IUztvryNzIXdS7vtBg59-7" value="Send a message" style="text;strokeColor=#DFDFDF;fillColor=#FFFFFF;align=left;verticalAlign=middle;spacingLeft=10;spacingRight=10;overflow=hidden;points=[[0,0.5],[1,0.5]];portConstraint=eastwest;rotatable=0;whiteSpace=wrap;html=1;rSize=5;fontColor=#000000;" parent="IUztvryNzIXdS7vtBg59-6" vertex="1">
          <mxGeometry width="200" height="30" as="geometry" />
        </mxCell>
        <mxCell id="IUztvryNzIXdS7vtBg59-8" value="Get all group" style="text;strokeColor=#DFDFDF;fillColor=#FFFFFF;align=left;verticalAlign=middle;spacingLeft=10;spacingRight=10;overflow=hidden;points=[[0,0.5],[1,0.5]];portConstraint=eastwest;rotatable=0;whiteSpace=wrap;html=1;rSize=5;fontColor=#000000;" parent="IUztvryNzIXdS7vtBg59-6" vertex="1">
          <mxGeometry y="30" width="200" height="30" as="geometry" />
        </mxCell>
        <mxCell id="IUztvryNzIXdS7vtBg59-9" value="Get all message from a group" style="text;strokeColor=#DFDFDF;fillColor=#FFFFFF;align=left;verticalAlign=middle;spacingLeft=10;spacingRight=10;overflow=hidden;points=[[0,0.5],[1,0.5]];portConstraint=eastwest;rotatable=0;whiteSpace=wrap;html=1;rSize=5;fontColor=#000000;" parent="IUztvryNzIXdS7vtBg59-6" vertex="1">
          <mxGeometry y="60" width="200" height="30" as="geometry" />
        </mxCell>
        <mxCell id="IUztvryNzIXdS7vtBg59-13" value="" style="endArrow=classic;html=1;rounded=0;entryX=0.019;entryY=-0.094;entryDx=0;entryDy=0;entryPerimeter=0;" parent="1" source="IUztvryNzIXdS7vtBg59-1" target="IUztvryNzIXdS7vtBg59-5" edge="1">
          <mxGeometry width="50" height="50" relative="1" as="geometry">
            <mxPoint x="200" y="340" as="sourcePoint" />
            <mxPoint x="250" y="290" as="targetPoint" />
          </mxGeometry>
        </mxCell>
        <mxCell id="IUztvryNzIXdS7vtBg59-15" value="Client" style="shape=umlActor;verticalLabelPosition=bottom;verticalAlign=top;html=1;outlineConnect=0;" parent="1" vertex="1">
          <mxGeometry x="60" y="80" width="30" height="60" as="geometry" />
        </mxCell>
        <mxCell id="IUztvryNzIXdS7vtBg59-16" value="" style="endArrow=classic;html=1;rounded=0;entryX=0;entryY=0.5;entryDx=0;entryDy=0;" parent="1" source="IUztvryNzIXdS7vtBg59-15" target="IUztvryNzIXdS7vtBg59-8" edge="1">
          <mxGeometry width="50" height="50" relative="1" as="geometry">
            <mxPoint x="150" y="120" as="sourcePoint" />
            <mxPoint x="200" y="70" as="targetPoint" />
          </mxGeometry>
        </mxCell>
      </root>
    </mxGraphModel>
  </diagram>
  <diagram id="KvwCSJqptSHqTbmgot8E" name="Protocol">
    <mxGraphModel dx="1238" dy="828" grid="1" gridSize="10" guides="1" tooltips="1" connect="1" arrows="1" fold="1" page="1" pageScale="1" pageWidth="827" pageHeight="1169" math="0" shadow="0">
      <root>
        <mxCell id="0" />
        <mxCell id="1" parent="0" />
        <mxCell id="f_U_d44kilACBReC1mQT-1" value="Commands&lt;br&gt;&lt;b&gt;SEND = 0x12, REQUEST_MESSAGES, GET_MESSAGES, REQUEST_GROUPS, GET_GROUPS&lt;/b&gt;" style="html=1;whiteSpace=wrap;align=left;" parent="1" vertex="1">
          <mxGeometry x="230" y="60" width="130" height="120" as="geometry" />
        </mxCell>
        <mxCell id="S1RHo5tVlwsRHSiSAdNm-8" value="" style="group" parent="1" vertex="1" connectable="0">
          <mxGeometry x="50" y="360" width="670" height="60" as="geometry" />
        </mxCell>
        <mxCell id="S1RHo5tVlwsRHSiSAdNm-6" value="end" style="rounded=0;whiteSpace=wrap;html=1;container=0;movable=1;resizable=1;rotatable=1;deletable=1;editable=1;locked=0;connectable=1;" parent="S1RHo5tVlwsRHSiSAdNm-8" vertex="1">
          <mxGeometry x="550" width="120" height="60" as="geometry" />
        </mxCell>
        <mxCell id="S1RHo5tVlwsRHSiSAdNm-2" value="start" style="rounded=0;whiteSpace=wrap;html=1;container=0;movable=1;resizable=1;rotatable=1;deletable=1;editable=1;locked=0;connectable=1;" parent="S1RHo5tVlwsRHSiSAdNm-8" vertex="1">
          <mxGeometry width="60" height="60" as="geometry" />
        </mxCell>
        <mxCell id="S1RHo5tVlwsRHSiSAdNm-3" value="json content" style="rounded=0;whiteSpace=wrap;html=1;container=0;movable=1;resizable=1;rotatable=1;deletable=1;editable=1;locked=0;connectable=1;" parent="S1RHo5tVlwsRHSiSAdNm-8" vertex="1">
          <mxGeometry x="150" width="400" height="60" as="geometry" />
        </mxCell>
        <mxCell id="S1RHo5tVlwsRHSiSAdNm-4" value="opcode" style="rounded=0;whiteSpace=wrap;html=1;container=0;movable=1;resizable=1;rotatable=1;deletable=1;editable=1;locked=0;connectable=1;" parent="S1RHo5tVlwsRHSiSAdNm-8" vertex="1">
          <mxGeometry x="60" width="90" height="60" as="geometry" />
        </mxCell>
        <mxCell id="S1RHo5tVlwsRHSiSAdNm-9" value="2bytes" style="text;html=1;align=center;verticalAlign=middle;resizable=0;points=[];autosize=1;strokeColor=none;fillColor=none;" parent="1" vertex="1">
          <mxGeometry x="50" y="318" width="60" height="30" as="geometry" />
        </mxCell>
        <mxCell id="S1RHo5tVlwsRHSiSAdNm-10" value="1bytes" style="text;html=1;align=center;verticalAlign=middle;resizable=0;points=[];autosize=1;strokeColor=none;fillColor=none;" parent="1" vertex="1">
          <mxGeometry x="120" y="318" width="60" height="30" as="geometry" />
        </mxCell>
        <mxCell id="S1RHo5tVlwsRHSiSAdNm-11" value="n bytes" style="text;html=1;align=center;verticalAlign=middle;resizable=0;points=[];autosize=1;strokeColor=none;fillColor=none;" parent="1" vertex="1">
          <mxGeometry x="340" y="318" width="60" height="30" as="geometry" />
        </mxCell>
        <mxCell id="S1RHo5tVlwsRHSiSAdNm-12" value="2 bytes" style="text;html=1;align=center;verticalAlign=middle;resizable=0;points=[];autosize=1;strokeColor=none;fillColor=none;" parent="1" vertex="1">
          <mxGeometry x="640" y="318" width="60" height="30" as="geometry" />
        </mxCell>
        <mxCell id="iVq8qLhxzjTf_W-CgMq1-1" value="" style="endArrow=classic;html=1;rounded=0;exitX=0.5;exitY=0;exitDx=0;exitDy=0;entryX=0.5;entryY=1;entryDx=0;entryDy=0;" edge="1" parent="1" source="S1RHo5tVlwsRHSiSAdNm-4" target="f_U_d44kilACBReC1mQT-1">
          <mxGeometry width="50" height="50" relative="1" as="geometry">
            <mxPoint x="360" y="270" as="sourcePoint" />
            <mxPoint x="410" y="220" as="targetPoint" />
          </mxGeometry>
        </mxCell>
        <mxCell id="iVq8qLhxzjTf_W-CgMq1-2" value="Packet Structure" style="text;html=1;align=center;verticalAlign=middle;resizable=0;points=[];autosize=1;strokeColor=none;fillColor=none;" vertex="1" parent="1">
          <mxGeometry x="315" y="430" width="110" height="30" as="geometry" />
        </mxCell>
      </root>
    </mxGraphModel>
  </diagram>
  <diagram id="Hmjsm3oEJMoaO2Ajgpf2" name="Database">
    <mxGraphModel dx="877" dy="587" grid="1" gridSize="10" guides="1" tooltips="1" connect="1" arrows="1" fold="1" page="1" pageScale="1" pageWidth="827" pageHeight="1169" math="0" shadow="0">
      <root>
        <mxCell id="0" />
        <mxCell id="1" parent="0" />
        <mxCell id="eJt0lZxQJ2uCy6OcFJSc-1" value="chat_users" style="shape=table;startSize=30;container=1;collapsible=1;childLayout=tableLayout;fixedRows=1;rowLines=0;fontStyle=1;align=center;resizeLast=1;html=1;" parent="1" vertex="1">
          <mxGeometry x="50" y="70" width="240" height="90" as="geometry" />
        </mxCell>
        <mxCell id="eJt0lZxQJ2uCy6OcFJSc-2" value="" style="shape=tableRow;horizontal=0;startSize=0;swimlaneHead=0;swimlaneBody=0;fillColor=none;collapsible=0;dropTarget=0;points=[[0,0.5],[1,0.5]];portConstraint=eastwest;top=0;left=0;right=0;bottom=1;" parent="eJt0lZxQJ2uCy6OcFJSc-1" vertex="1">
          <mxGeometry y="30" width="240" height="30" as="geometry" />
        </mxCell>
        <mxCell id="eJt0lZxQJ2uCy6OcFJSc-3" value="PK" style="shape=partialRectangle;connectable=0;fillColor=none;top=0;left=0;bottom=0;right=0;fontStyle=1;overflow=hidden;whiteSpace=wrap;html=1;" parent="eJt0lZxQJ2uCy6OcFJSc-2" vertex="1">
          <mxGeometry width="30" height="30" as="geometry">
            <mxRectangle width="30" height="30" as="alternateBounds" />
          </mxGeometry>
        </mxCell>
        <mxCell id="eJt0lZxQJ2uCy6OcFJSc-4" value="id: int auto_increment" style="shape=partialRectangle;connectable=0;fillColor=none;top=0;left=0;bottom=0;right=0;align=left;spacingLeft=6;fontStyle=5;overflow=hidden;whiteSpace=wrap;html=1;" parent="eJt0lZxQJ2uCy6OcFJSc-2" vertex="1">
          <mxGeometry x="30" width="210" height="30" as="geometry">
            <mxRectangle width="210" height="30" as="alternateBounds" />
          </mxGeometry>
        </mxCell>
        <mxCell id="eJt0lZxQJ2uCy6OcFJSc-5" value="" style="shape=tableRow;horizontal=0;startSize=0;swimlaneHead=0;swimlaneBody=0;fillColor=none;collapsible=0;dropTarget=0;points=[[0,0.5],[1,0.5]];portConstraint=eastwest;top=0;left=0;right=0;bottom=0;" parent="eJt0lZxQJ2uCy6OcFJSc-1" vertex="1">
          <mxGeometry y="60" width="240" height="30" as="geometry" />
        </mxCell>
        <mxCell id="eJt0lZxQJ2uCy6OcFJSc-6" value="" style="shape=partialRectangle;connectable=0;fillColor=none;top=0;left=0;bottom=0;right=0;editable=1;overflow=hidden;whiteSpace=wrap;html=1;" parent="eJt0lZxQJ2uCy6OcFJSc-5" vertex="1">
          <mxGeometry width="30" height="30" as="geometry">
            <mxRectangle width="30" height="30" as="alternateBounds" />
          </mxGeometry>
        </mxCell>
        <mxCell id="eJt0lZxQJ2uCy6OcFJSc-7" value="user_name: TEXT" style="shape=partialRectangle;connectable=0;fillColor=none;top=0;left=0;bottom=0;right=0;align=left;spacingLeft=6;overflow=hidden;whiteSpace=wrap;html=1;" parent="eJt0lZxQJ2uCy6OcFJSc-5" vertex="1">
          <mxGeometry x="30" width="210" height="30" as="geometry">
            <mxRectangle width="210" height="30" as="alternateBounds" />
          </mxGeometry>
        </mxCell>
        <mxCell id="eJt0lZxQJ2uCy6OcFJSc-14" value="chat_messages" style="shape=table;startSize=30;container=1;collapsible=1;childLayout=tableLayout;fixedRows=1;rowLines=0;fontStyle=1;align=center;resizeLast=1;html=1;" parent="1" vertex="1">
          <mxGeometry x="280" y="310" width="210" height="120" as="geometry" />
        </mxCell>
        <mxCell id="eJt0lZxQJ2uCy6OcFJSc-15" value="" style="shape=tableRow;horizontal=0;startSize=0;swimlaneHead=0;swimlaneBody=0;fillColor=none;collapsible=0;dropTarget=0;points=[[0,0.5],[1,0.5]];portConstraint=eastwest;top=0;left=0;right=0;bottom=1;" parent="eJt0lZxQJ2uCy6OcFJSc-14" vertex="1">
          <mxGeometry y="30" width="210" height="30" as="geometry" />
        </mxCell>
        <mxCell id="eJt0lZxQJ2uCy6OcFJSc-16" value="PK" style="shape=partialRectangle;connectable=0;fillColor=none;top=0;left=0;bottom=0;right=0;fontStyle=1;overflow=hidden;whiteSpace=wrap;html=1;" parent="eJt0lZxQJ2uCy6OcFJSc-15" vertex="1">
          <mxGeometry width="30" height="30" as="geometry">
            <mxRectangle width="30" height="30" as="alternateBounds" />
          </mxGeometry>
        </mxCell>
        <mxCell id="eJt0lZxQJ2uCy6OcFJSc-17" value="id: int auto_increment" style="shape=partialRectangle;connectable=0;fillColor=none;top=0;left=0;bottom=0;right=0;align=left;spacingLeft=6;fontStyle=5;overflow=hidden;whiteSpace=wrap;html=1;" parent="eJt0lZxQJ2uCy6OcFJSc-15" vertex="1">
          <mxGeometry x="30" width="180" height="30" as="geometry">
            <mxRectangle width="180" height="30" as="alternateBounds" />
          </mxGeometry>
        </mxCell>
        <mxCell id="eJt0lZxQJ2uCy6OcFJSc-18" value="" style="shape=tableRow;horizontal=0;startSize=0;swimlaneHead=0;swimlaneBody=0;fillColor=none;collapsible=0;dropTarget=0;points=[[0,0.5],[1,0.5]];portConstraint=eastwest;top=0;left=0;right=0;bottom=0;" parent="eJt0lZxQJ2uCy6OcFJSc-14" vertex="1">
          <mxGeometry y="60" width="210" height="30" as="geometry" />
        </mxCell>
        <mxCell id="eJt0lZxQJ2uCy6OcFJSc-19" value="" style="shape=partialRectangle;connectable=0;fillColor=none;top=0;left=0;bottom=0;right=0;editable=1;overflow=hidden;whiteSpace=wrap;html=1;" parent="eJt0lZxQJ2uCy6OcFJSc-18" vertex="1">
          <mxGeometry width="30" height="30" as="geometry">
            <mxRectangle width="30" height="30" as="alternateBounds" />
          </mxGeometry>
        </mxCell>
        <mxCell id="eJt0lZxQJ2uCy6OcFJSc-20" value="content: TEXT" style="shape=partialRectangle;connectable=0;fillColor=none;top=0;left=0;bottom=0;right=0;align=left;spacingLeft=6;overflow=hidden;whiteSpace=wrap;html=1;" parent="eJt0lZxQJ2uCy6OcFJSc-18" vertex="1">
          <mxGeometry x="30" width="180" height="30" as="geometry">
            <mxRectangle width="180" height="30" as="alternateBounds" />
          </mxGeometry>
        </mxCell>
        <mxCell id="2lcSRAbrLmI8yPpT82i_-1" value="" style="shape=tableRow;horizontal=0;startSize=0;swimlaneHead=0;swimlaneBody=0;fillColor=none;collapsible=0;dropTarget=0;points=[[0,0.5],[1,0.5]];portConstraint=eastwest;top=0;left=0;right=0;bottom=0;" parent="eJt0lZxQJ2uCy6OcFJSc-14" vertex="1">
          <mxGeometry y="90" width="210" height="30" as="geometry" />
        </mxCell>
        <mxCell id="2lcSRAbrLmI8yPpT82i_-2" value="" style="shape=partialRectangle;connectable=0;fillColor=none;top=0;left=0;bottom=0;right=0;editable=1;overflow=hidden;whiteSpace=wrap;html=1;" parent="2lcSRAbrLmI8yPpT82i_-1" vertex="1">
          <mxGeometry width="30" height="30" as="geometry">
            <mxRectangle width="30" height="30" as="alternateBounds" />
          </mxGeometry>
        </mxCell>
        <mxCell id="2lcSRAbrLmI8yPpT82i_-3" value="created_date: Datetime" style="shape=partialRectangle;connectable=0;fillColor=none;top=0;left=0;bottom=0;right=0;align=left;spacingLeft=6;overflow=hidden;whiteSpace=wrap;html=1;" parent="2lcSRAbrLmI8yPpT82i_-1" vertex="1">
          <mxGeometry x="30" width="180" height="30" as="geometry">
            <mxRectangle width="180" height="30" as="alternateBounds" />
          </mxGeometry>
        </mxCell>
        <mxCell id="eJt0lZxQJ2uCy6OcFJSc-21" value="chat_groups" style="shape=table;startSize=30;container=1;collapsible=1;childLayout=tableLayout;fixedRows=1;rowLines=0;fontStyle=1;align=center;resizeLast=1;html=1;" parent="1" vertex="1">
          <mxGeometry x="520" y="50" width="180" height="120" as="geometry" />
        </mxCell>
        <mxCell id="eJt0lZxQJ2uCy6OcFJSc-22" value="" style="shape=tableRow;horizontal=0;startSize=0;swimlaneHead=0;swimlaneBody=0;fillColor=none;collapsible=0;dropTarget=0;points=[[0,0.5],[1,0.5]];portConstraint=eastwest;top=0;left=0;right=0;bottom=1;" parent="eJt0lZxQJ2uCy6OcFJSc-21" vertex="1">
          <mxGeometry y="30" width="180" height="30" as="geometry" />
        </mxCell>
        <mxCell id="eJt0lZxQJ2uCy6OcFJSc-23" value="PK" style="shape=partialRectangle;connectable=0;fillColor=none;top=0;left=0;bottom=0;right=0;fontStyle=1;overflow=hidden;whiteSpace=wrap;html=1;" parent="eJt0lZxQJ2uCy6OcFJSc-22" vertex="1">
          <mxGeometry width="30" height="30" as="geometry">
            <mxRectangle width="30" height="30" as="alternateBounds" />
          </mxGeometry>
        </mxCell>
        <mxCell id="eJt0lZxQJ2uCy6OcFJSc-24" value="id: int auto_increment" style="shape=partialRectangle;connectable=0;fillColor=none;top=0;left=0;bottom=0;right=0;align=left;spacingLeft=6;fontStyle=5;overflow=hidden;whiteSpace=wrap;html=1;" parent="eJt0lZxQJ2uCy6OcFJSc-22" vertex="1">
          <mxGeometry x="30" width="150" height="30" as="geometry">
            <mxRectangle width="150" height="30" as="alternateBounds" />
          </mxGeometry>
        </mxCell>
        <mxCell id="eJt0lZxQJ2uCy6OcFJSc-25" value="" style="shape=tableRow;horizontal=0;startSize=0;swimlaneHead=0;swimlaneBody=0;fillColor=none;collapsible=0;dropTarget=0;points=[[0,0.5],[1,0.5]];portConstraint=eastwest;top=0;left=0;right=0;bottom=0;" parent="eJt0lZxQJ2uCy6OcFJSc-21" vertex="1">
          <mxGeometry y="60" width="180" height="30" as="geometry" />
        </mxCell>
        <mxCell id="eJt0lZxQJ2uCy6OcFJSc-26" value="" style="shape=partialRectangle;connectable=0;fillColor=none;top=0;left=0;bottom=0;right=0;editable=1;overflow=hidden;whiteSpace=wrap;html=1;" parent="eJt0lZxQJ2uCy6OcFJSc-25" vertex="1">
          <mxGeometry width="30" height="30" as="geometry">
            <mxRectangle width="30" height="30" as="alternateBounds" />
          </mxGeometry>
        </mxCell>
        <mxCell id="eJt0lZxQJ2uCy6OcFJSc-27" value="group_id: int&amp;nbsp;" style="shape=partialRectangle;connectable=0;fillColor=none;top=0;left=0;bottom=0;right=0;align=left;spacingLeft=6;overflow=hidden;whiteSpace=wrap;html=1;" parent="eJt0lZxQJ2uCy6OcFJSc-25" vertex="1">
          <mxGeometry x="30" width="150" height="30" as="geometry">
            <mxRectangle width="150" height="30" as="alternateBounds" />
          </mxGeometry>
        </mxCell>
        <mxCell id="Z_3HyjXxpY9r4GiEm86k-1" value="" style="shape=tableRow;horizontal=0;startSize=0;swimlaneHead=0;swimlaneBody=0;fillColor=none;collapsible=0;dropTarget=0;points=[[0,0.5],[1,0.5]];portConstraint=eastwest;top=0;left=0;right=0;bottom=0;" parent="eJt0lZxQJ2uCy6OcFJSc-21" vertex="1">
          <mxGeometry y="90" width="180" height="30" as="geometry" />
        </mxCell>
        <mxCell id="Z_3HyjXxpY9r4GiEm86k-2" value="" style="shape=partialRectangle;connectable=0;fillColor=none;top=0;left=0;bottom=0;right=0;editable=1;overflow=hidden;whiteSpace=wrap;html=1;" parent="Z_3HyjXxpY9r4GiEm86k-1" vertex="1">
          <mxGeometry width="30" height="30" as="geometry">
            <mxRectangle width="30" height="30" as="alternateBounds" />
          </mxGeometry>
        </mxCell>
        <mxCell id="Z_3HyjXxpY9r4GiEm86k-3" value="group_name: TEXT&amp;nbsp;" style="shape=partialRectangle;connectable=0;fillColor=none;top=0;left=0;bottom=0;right=0;align=left;spacingLeft=6;overflow=hidden;whiteSpace=wrap;html=1;" parent="Z_3HyjXxpY9r4GiEm86k-1" vertex="1">
          <mxGeometry x="30" width="150" height="30" as="geometry">
            <mxRectangle width="150" height="30" as="alternateBounds" />
          </mxGeometry>
        </mxCell>
        <mxCell id="eJt0lZxQJ2uCy6OcFJSc-37" value="" style="fontSize=12;html=1;endArrow=ERzeroToMany;endFill=1;rounded=0;entryX=0.75;entryY=0;entryDx=0;entryDy=0;startArrow=ERone;startFill=0;exitX=0.533;exitY=1.167;exitDx=0;exitDy=0;exitPerimeter=0;" parent="1" source="Z_3HyjXxpY9r4GiEm86k-1" target="eJt0lZxQJ2uCy6OcFJSc-14" edge="1">
          <mxGeometry width="100" height="100" relative="1" as="geometry">
            <mxPoint x="658" y="163" as="sourcePoint" />
            <mxPoint x="710" y="260" as="targetPoint" />
          </mxGeometry>
        </mxCell>
        <mxCell id="eJt0lZxQJ2uCy6OcFJSc-39" value="" style="fontSize=12;html=1;endArrow=ERzeroToMany;endFill=1;rounded=0;startArrow=ERone;startFill=0;exitX=0.5;exitY=0.9;exitDx=0;exitDy=0;exitPerimeter=0;entryX=0.186;entryY=0;entryDx=0;entryDy=0;entryPerimeter=0;" parent="1" source="eJt0lZxQJ2uCy6OcFJSc-5" target="eJt0lZxQJ2uCy6OcFJSc-14" edge="1">
          <mxGeometry width="100" height="100" relative="1" as="geometry">
            <mxPoint x="220" y="380" as="sourcePoint" />
            <mxPoint x="320" y="280" as="targetPoint" />
          </mxGeometry>
        </mxCell>
        <mxCell id="eJt0lZxQJ2uCy6OcFJSc-40" value="onwer" style="edgeLabel;html=1;align=center;verticalAlign=middle;resizable=0;points=[];" parent="eJt0lZxQJ2uCy6OcFJSc-39" vertex="1" connectable="0">
          <mxGeometry x="-0.0427" y="-1" relative="1" as="geometry">
            <mxPoint as="offset" />
          </mxGeometry>
        </mxCell>
      </root>
    </mxGraphModel>
  </diagram>
</mxfile>
